<?xml version="1.0" encoding="UTF-8"?>
<svg id="Layer_2" data-name="Layer 2" xmlns="http://www.w3.org/2000/svg" viewBox="0 0 439.8 126.98">
  <defs>
    <style>
      .cls-1 {
        fill: #c2c2c4;
      }

      .cls-2 {
        fill: #20449c;
      }

      .cls-3 {
        fill: #4052a3;
      }

      .cls-4 {
        fill: #293171;
      }

      .cls-5 {
        fill: #263d8c;
      }
    </style>
  </defs>
  <g id="Layer_1-2" data-name="Layer 1">
    <path class="cls-1" d="m115.25,58.09s-2.78,14.31-7.15,18.28l2.12,13.51s.26,7.82-5.96,11.79c-6.23,3.97-67.96,13.25-67.96,13.25,0,0-8.74,0-12.19-8.48L11.92,41.53s-.79-8.21,8.74-11.92l30.73-6.09s-2.38-9.54-6.09-11.13l-31.39,6.76S1.19,24.7,0,38.61l13.51,73.92s7.15,15.9,20.66,14.31l71.53-13.11s11.92-1.19,15.9-16.29c0,0,.4-16.29-6.36-39.34Z"/>
    <path class="cls-5" d="m59.34,56.63s-.36-16.51-4.77-26.76l-20.66,2.65s15.1,26.23,8.74,50.07c0,0-3.71,16.43-11.13,20.13,0,0,28.88-6.09,27.82-46.1Z"/>
    <path class="cls-3" d="m34.44,93.98c10.33-19.08,1.85-44.51,1.85-44.51l-12.98,3.97c11.92,25.43,5.56,47.95,5.56,47.95,2.65,0,5.56-7.42,5.56-7.42Z"/>
    <path class="cls-4" d="m33.12,108.03c53.78-2.65,65.44-25.17,65.44-25.17,22.35-25.45,14.57-72.59,14.57-72.59-10.6,13.78-30.2,10.33-30.2,10.33-17.49-1.06-35.77-17.22-35.77-17.22,10.86,15.37,15.63,44.51,15.63,44.51,9.8,46.36-29.67,60.14-29.67,60.14Zm40.07-67.13c4.03-8.13,11.06-3.95,11.06-3.95,4.4,2.93,3.93,6.45,3.93,6.45l-.52,3.99,2.65.32c1.73.91,1.3,2.09,1.3,2.09-.27,1.85-1.75,1.67-1.75,1.67l-2.64-.36-1.4,11.65c.07,3.3,3.14,3.29,3.14,3.29,2.67-.25,2.9-2.62,2.9-2.62-1.53-.18-2.33-1.74-2.33-1.74-1.73-3.64,2.48-4.55,2.48-4.55,3.84-.2,4,2.79,4,2.79.07,3.3-.63,5.29-.63,5.29-2.27,5.99-8.02,4.45-8.02,4.45-5.75-1.49-5.23-7.08-5.23-7.08l1.42-11.88-2.87-.34c-.63-.26-.73-.6-.73-.6-1.49-2.11,1.13-3.11,1.13-3.11l2.88.34s.2-.87.3-2.51c.1-1.64-.13-1.7-.13-1.7-.69-3.24-4-3.08-4-3.08-3.59.52-3.76,3.84-3.76,3.84-.98,2.38-2.85.98-2.85.98-1.65-1.14-.32-3.62-.32-3.62Z"/>
    <g>
      <path class="cls-2" d="m221.31,65.81l-6.97,32.52h-33.45L201.8,0h35.77c5.88,0,11.25.31,16.11.93,4.85.62,9.03,1.86,12.54,3.72,3.51,1.86,6.24,4.52,8.21,7.97,1.96,3.46,2.94,8.08,2.94,13.86,0,5.37-.85,10.45-2.56,15.25-1.7,4.8-4.44,8.98-8.21,12.54-3.77,3.56-8.65,6.38-14.63,8.44-5.99,2.07-13.27,3.1-21.83,3.1h-8.83Zm9.29-9.91c3.1,0,5.7-1.29,7.82-3.87,2.11-2.58,3.87-5.73,5.26-9.45,1.39-3.72,2.4-7.59,3.02-11.61.62-4.03.93-7.53.93-10.53,0-2.79-.46-5.13-1.39-7.04-.93-1.91-2.94-2.87-6.04-2.87h-6.97l-9.76,45.37h7.12Z"/>
      <path class="cls-2" d="m284.18,37.47c5.27-2.58,10.66-4.46,16.18-5.65,5.52-1.18,11.69-1.78,18.51-1.78s12.08.52,16.41,1.55c4.33,1.03,7.79,2.53,10.37,4.49,2.58,1.96,4.39,4.29,5.42,6.97,1.03,2.69,1.55,5.73,1.55,9.14,0,1.96-.13,4.08-.39,6.35-.26,2.27-.54,4.18-.85,5.73l-7.28,34.07h-24.93l-2.79-9.91h-.93c-3.31,3.61-7.15,6.38-11.54,8.28-4.39,1.91-8.75,2.86-13.08,2.86-2.48,0-4.9-.36-7.28-1.08-2.38-.72-4.49-1.83-6.35-3.33-1.86-1.5-3.36-3.41-4.49-5.73-1.13-2.32-1.7-5.13-1.7-8.44,0-5.37,1.47-9.63,4.41-12.77,2.94-3.15,6.81-5.52,11.61-7.12,4.8-1.6,10.22-2.61,16.26-3.02,6.04-.41,12.1-.62,18.19-.62.21-1.03.46-2.5.77-4.41.31-1.91.46-3.59.46-5.03,0-1.86-.49-3.58-1.47-5.19-.98-1.6-3.02-2.4-6.12-2.4-3.61,0-6.27,1.06-7.97,3.17-1.7,2.12-2.81,4.67-3.33,7.67h-22.61l2.94-13.78Zm35.62,27.25h-2.79c-3,0-5.55.39-7.67,1.16-2.12.77-3.82,1.78-5.11,3.02-1.29,1.24-2.25,2.63-2.86,4.18-.62,1.55-.93,3.1-.93,4.65,0,2.48.64,4.33,1.94,5.57,1.29,1.24,2.81,1.86,4.57,1.86,2.17,0,4.31-.77,6.43-2.32,2.12-1.55,3.43-3.61,3.95-6.19l2.48-11.92Z"/>
      <path class="cls-2" d="m394.27,31.74l4.65,45.53,24.47-45.53h16.41l-37.32,66.58c-3.72,6.5-7.49,11.51-11.3,15.02-3.82,3.51-7.98,6.09-12.47,7.74-4.49,1.65-9.45,2.6-14.87,2.86-5.42.26-11.59.39-18.5.39l2.32-10.68c3.41,0,6.58-.05,9.52-.16,2.94-.1,5.29-.41,7.05-.93,2.37-.62,4.08-1.73,5.11-3.33,1.03-1.6,1.55-3.95,1.55-7.04,0-2.07-.18-4.44-.54-7.12-.36-2.68-.75-5.52-1.16-8.52l-7.59-54.82h32.67Z"/>
    </g>
    <g>
      <path class="cls-1" d="m258.1,126.98c-1.19,0-2.37-.18-3.52-.55-1.15-.37-2.15-.9-2.98-1.6l1.08-1.68c.87.66,1.74,1.16,2.61,1.49s1.79.5,2.76.5c1.08,0,1.94-.21,2.57-.64.63-.43.95-1.03.95-1.8,0-.36-.08-.67-.26-.92-.17-.26-.43-.48-.77-.67s-.78-.36-1.31-.51c-.53-.15-1.15-.31-1.85-.48-.89-.23-1.66-.44-2.3-.65-.64-.21-1.17-.45-1.59-.74-.42-.28-.72-.63-.91-1.02-.19-.4-.28-.89-.28-1.48,0-.74.15-1.4.44-1.97.29-.58.7-1.06,1.21-1.45.51-.39,1.11-.68,1.8-.88.69-.2,1.43-.3,2.23-.3,1.12,0,2.16.18,3.13.54.97.36,1.78.83,2.44,1.42l-1.14,1.51c-.62-.55-1.33-.96-2.1-1.24-.78-.27-1.57-.41-2.39-.41-.91,0-1.68.19-2.32.58-.63.39-.95,1.01-.95,1.86,0,.34.06.62.18.85.12.23.33.43.61.6.28.17.65.32,1.09.45.44.13.98.28,1.6.43.98.23,1.84.46,2.57.7.73.24,1.33.52,1.82.84.48.32.84.7,1.08,1.14s.36.97.36,1.59c0,1.38-.53,2.48-1.59,3.29-1.06.81-2.49,1.22-4.29,1.22Z"/>
      <path class="cls-1" d="m274.49,125.96c-.15.08-.35.17-.6.27-.25.1-.53.21-.84.31-.31.1-.65.19-1.02.26s-.75.1-1.15.1c-.91,0-1.7-.25-2.36-.75-.66-.5-.99-1.28-.99-2.34v-9.97h-2.02v-1.96h2.02v-4.94h2.5v4.94h3.32v1.96h-3.32v9.2c.04.55.22.95.54,1.19.32.25.7.37,1.14.37.49,0,.94-.08,1.35-.24s.69-.29.84-.38l.6,1.99Z"/>
      <path class="cls-1" d="m280.65,126.98c-.74,0-1.42-.12-2.04-.36-.63-.24-1.17-.56-1.62-.97-.45-.41-.81-.89-1.07-1.45-.26-.56-.38-1.15-.38-1.78,0-.7.15-1.34.45-1.92.3-.58.73-1.07,1.29-1.48.56-.41,1.22-.72,1.99-.94.77-.22,1.6-.33,2.51-.33.72,0,1.45.07,2.19.2.74.13,1.39.31,1.96.54v-1.19c0-1.21-.34-2.16-1.02-2.85s-1.65-1.04-2.9-1.04c-1.5,0-3.07.58-4.72,1.73l-.82-1.62c.97-.64,1.92-1.13,2.87-1.45.95-.32,1.93-.48,2.95-.48,1.89,0,3.39.52,4.49,1.56,1.1,1.04,1.65,2.51,1.65,4.4v6.05c0,.59.26.89.8.91v2.16c-.19.04-.37.07-.54.09-.17.02-.33.03-.48.03-.42,0-.82-.11-1.22-.34-.4-.23-.62-.62-.65-1.16l-.06-1.05c-.34.45-.73.85-1.17,1.19-.44.34-.9.63-1.39.85-.49.23-1,.4-1.52.51-.52.11-1.04.17-1.55.17Zm.63-1.87c.79,0,1.57-.17,2.33-.51.76-.34,1.35-.76,1.79-1.25.36-.42.54-.8.54-1.17v-2.19c-.59-.23-1.21-.4-1.86-.53s-1.28-.18-1.89-.18c-1.29,0-2.32.26-3.1.78-.78.52-1.16,1.24-1.16,2.14,0,.38.08.74.23,1.09.15.35.37.66.65.92.28.27.63.48,1.05.64.42.16.89.24,1.42.24Z"/>
      <path class="cls-1" d="m299.94,125.96c-.15.08-.35.17-.6.27-.25.1-.53.21-.84.31-.31.1-.65.19-1.02.26-.37.07-.75.1-1.15.1-.91,0-1.7-.25-2.36-.75-.66-.5-.99-1.28-.99-2.34v-9.97h-2.02v-1.96h2.02v-4.94h2.5v4.94h3.32v1.96h-3.32v9.2c.04.55.22.95.54,1.19.32.25.7.37,1.14.37.49,0,.94-.08,1.35-.24.41-.16.69-.29.84-.38l.6,1.99Z"/>
      <path class="cls-1" d="m302.1,109.09v-3.12h2.5v3.12h-2.5Zm0,17.61v-14.83h2.5v14.83h-2.5Z"/>
      <path class="cls-1" d="m315.05,126.98c-1.12,0-2.14-.21-3.05-.62-.92-.42-1.7-.97-2.36-1.68-.65-.7-1.16-1.51-1.52-2.44-.36-.93-.54-1.9-.54-2.93s.18-2.03.55-2.95c.37-.93.88-1.74,1.53-2.44.65-.7,1.44-1.26,2.36-1.68.92-.42,1.93-.62,3.03-.62s2.11.21,3.04.62c.93.42,1.72.98,2.37,1.68.65.7,1.16,1.52,1.53,2.44.37.93.55,1.91.55,2.95s-.18,2-.54,2.93c-.36.93-.87,1.74-1.53,2.44-.66.7-1.45,1.26-2.37,1.68-.92.42-1.94.62-3.05.62Zm-4.91-7.64c0,.78.13,1.5.38,2.16.26.66.61,1.24,1.05,1.73.44.49.97.88,1.56,1.16s1.24.43,1.92.43,1.32-.14,1.92-.43c.6-.28,1.12-.68,1.58-1.18.45-.5.81-1.09,1.07-1.76.26-.67.38-1.4.38-2.17s-.13-1.47-.38-2.14c-.26-.67-.61-1.26-1.07-1.76-.45-.5-.98-.89-1.58-1.18-.6-.28-1.24-.43-1.92-.43s-1.32.15-1.92.44c-.6.29-1.12.69-1.56,1.19-.45.5-.8,1.09-1.05,1.76-.26.67-.38,1.4-.38,2.17Z"/>
      <path class="cls-1" d="m338.37,126.7h-2.5v-8.29c0-1.59-.24-2.75-.72-3.47-.48-.72-1.22-1.08-2.2-1.08-.51,0-1.02.1-1.53.3s-.99.47-1.45.81c-.45.34-.85.75-1.19,1.22-.34.47-.6.99-.77,1.56v8.95h-2.5v-14.83h2.27v3.18c.59-1.04,1.43-1.88,2.54-2.5,1.11-.63,2.32-.94,3.62-.94.85,0,1.56.16,2.13.47.57.31,1.02.75,1.36,1.31s.58,1.22.72,1.97c.14.76.21,1.58.21,2.47v8.86Z"/>
    </g>
    <g>
      <path class="cls-1" d="m192.45,116c.4.38.61.91.61,1.59,0,.21-.02.44-.07.7l-.7,3.91h-2.04l.65-3.64c.02-.08.02-.19.02-.32,0-.34-.09-.59-.28-.77-.19-.18-.45-.26-.79-.26-.4,0-.74.12-1.01.35-.27.24-.44.57-.52,1l-.65,3.64h-2.04l.65-3.64c.02-.08.02-.19.02-.32,0-.34-.09-.59-.28-.77-.19-.18-.45-.26-.79-.26-.4,0-.74.12-1.01.35-.27.24-.44.57-.52,1v-.06l-.65,3.7h-2.05l1.18-6.7h2.05l-.14.85c.26-.29.57-.51.93-.68.36-.16.76-.25,1.18-.25.51,0,.95.11,1.3.32.36.22.61.53.76.94.3-.38.66-.68,1.1-.91s.9-.35,1.38-.35c.72,0,1.28.19,1.69.57Z"/>
      <path class="cls-1" d="m194.63,117.03c.35-.52.78-.92,1.27-1.2.5-.28,1.02-.42,1.57-.42.47,0,.87.1,1.19.29s.55.44.7.76l.17-.95h2.05l-1.19,6.7h-2.05l.18-.95c-.26.31-.58.56-.97.76-.39.19-.82.29-1.3.29s-.89-.11-1.25-.32c-.36-.22-.65-.52-.85-.92-.2-.4-.3-.86-.3-1.4,0-.26.02-.53.07-.82.12-.69.36-1.29.71-1.81Zm4.34,1.43c0-.39-.11-.7-.34-.92s-.52-.34-.87-.34c-.41,0-.78.15-1.12.44s-.55.69-.64,1.21c-.02.14-.04.28-.04.4,0,.39.11.7.34.93.23.23.51.34.86.34.41,0,.78-.15,1.12-.44.34-.3.55-.7.65-1.21.02-.14.04-.28.04-.4Z"/>
      <path class="cls-1" d="m205.96,115.77c.4-.23.83-.34,1.27-.34l-.38,2.17h-.56c-.51,0-.92.11-1.21.33-.3.22-.49.61-.59,1.16l-.55,3.11h-2.05l1.18-6.7h2.05l-.22,1.21c.31-.4.67-.71,1.07-.94Z"/>
      <path class="cls-1" d="m207.95,117.03c.38-.52.84-.92,1.4-1.2.56-.28,1.16-.42,1.82-.42.84,0,1.5.22,1.99.66s.75,1.06.78,1.86h-2.18c-.09-.51-.4-.77-.94-.77-.38,0-.7.15-.97.44s-.46.71-.55,1.25c-.03.17-.05.34-.05.53,0,.38.09.66.26.86.18.2.42.3.72.3.53,0,.92-.26,1.19-.77h2.2c-.31.78-.79,1.4-1.44,1.85-.65.45-1.39.67-2.22.67s-1.55-.24-2.06-.71c-.51-.48-.76-1.13-.76-1.95,0-.25.02-.51.07-.78.12-.7.37-1.3.74-1.82Z"/>
      <path class="cls-1" d="m221.13,115.99c.38.38.57.9.57,1.57,0,.22-.02.46-.07.72l-.7,3.91h-2.04l.65-3.64c.02-.14.04-.26.04-.36,0-.34-.09-.6-.28-.78s-.45-.28-.79-.28c-.4,0-.74.12-1.01.37-.27.25-.45.6-.53,1.04v-.02l-.65,3.66h-2.05l1.57-8.88h2.05l-.54,3.07c.26-.3.59-.53.97-.7.38-.17.8-.26,1.25-.26.66,0,1.17.19,1.55.56Z"/>
      <path class="cls-1" d="m223.26,117.03c.35-.52.78-.92,1.27-1.2.5-.28,1.02-.42,1.57-.42.47,0,.87.1,1.19.29s.55.44.7.76l.17-.95h2.05l-1.19,6.7h-2.05l.18-.95c-.26.31-.58.56-.97.76-.39.19-.82.29-1.3.29s-.89-.11-1.25-.32c-.36-.22-.65-.52-.85-.92-.2-.4-.3-.86-.3-1.4,0-.26.02-.53.07-.82.12-.69.36-1.29.71-1.81Zm4.34,1.43c0-.39-.11-.7-.34-.92s-.52-.34-.87-.34c-.41,0-.78.15-1.12.44s-.55.69-.64,1.21c-.02.14-.04.28-.04.4,0,.39.11.7.34.93.23.23.51.34.86.34.41,0,.78-.15,1.12-.44.34-.3.55-.7.65-1.21.02-.14.04-.28.04-.4Z"/>
      <path class="cls-1" d="m237.36,115.99c.38.38.58.9.58,1.57,0,.22-.02.46-.07.72l-.7,3.91h-2.04l.65-3.64c.02-.14.04-.26.04-.36,0-.34-.09-.6-.28-.78s-.45-.28-.79-.28c-.4,0-.74.12-1.01.37-.27.25-.45.6-.53,1.04v-.06l-.65,3.7h-2.05l1.18-6.7h2.05l-.16.9c.26-.3.59-.53.97-.71s.79-.26,1.23-.26c.67,0,1.2.19,1.58.56Z"/>
      <path class="cls-1" d="m241.38,119.89s-.01.09-.01.16c0,.14.04.25.13.31s.22.1.41.1h.73l-.31,1.74h-1.04c-1.34,0-2.02-.56-2.02-1.69,0-.17.02-.38.06-.64l.48-2.66h-.82l.3-1.7h.82l.29-1.63h2.05l-.29,1.63h1.34l-.3,1.7h-1.34l-.48,2.69Z"/>
    </g>
  </g>
</svg>